<mxfile host="Electron" agent="Mozilla/5.0 (Macintosh; Intel Mac OS X 10_15_7) AppleWebKit/537.36 (KHTML, like Gecko) draw.io/26.2.2 Chrome/134.0.6998.178 Electron/35.1.2 Safari/537.36" version="26.2.2">
  <diagram name="Page-1" id="-H_mtQnk-PTXWXPvYvuk">
    <mxGraphModel dx="1216" dy="748" grid="1" gridSize="10" guides="1" tooltips="1" connect="1" arrows="1" fold="1" page="1" pageScale="1" pageWidth="1169" pageHeight="827" math="0" shadow="0">
      <root>
        <mxCell id="0" />
        <mxCell id="1" parent="0" />
        <mxCell id="ypXTvWuPCxLjXO1J6HbK-5" value="secondary" style="shape=cylinder3;whiteSpace=wrap;html=1;boundedLbl=1;backgroundOutline=1;size=15;" vertex="1" parent="1">
          <mxGeometry x="145" y="516" width="110" height="80" as="geometry" />
        </mxCell>
        <mxCell id="ypXTvWuPCxLjXO1J6HbK-4" value="secondary" style="shape=cylinder3;whiteSpace=wrap;html=1;boundedLbl=1;backgroundOutline=1;size=15;" vertex="1" parent="1">
          <mxGeometry x="145" y="466" width="110" height="80" as="geometry" />
        </mxCell>
        <mxCell id="ypXTvWuPCxLjXO1J6HbK-3" value="primary" style="shape=cylinder3;whiteSpace=wrap;html=1;boundedLbl=1;backgroundOutline=1;size=15;" vertex="1" parent="1">
          <mxGeometry x="145" y="416" width="110" height="80" as="geometry" />
        </mxCell>
        <mxCell id="zA23MoTUsTF4_91t8viU-2" value="&lt;b&gt;shard1-1&lt;/b&gt;" style="shape=cylinder3;whiteSpace=wrap;html=1;boundedLbl=1;backgroundOutline=1;size=15;" parent="1" vertex="1">
          <mxGeometry x="145" y="366" width="110" height="80" as="geometry" />
        </mxCell>
        <mxCell id="ypXTvWuPCxLjXO1J6HbK-12" style="edgeStyle=orthogonalEdgeStyle;rounded=0;orthogonalLoop=1;jettySize=auto;html=1;exitX=0.25;exitY=1;exitDx=0;exitDy=0;entryX=0.5;entryY=0;entryDx=0;entryDy=0;" edge="1" parent="1" source="zA23MoTUsTF4_91t8viU-3" target="ypXTvWuPCxLjXO1J6HbK-1">
          <mxGeometry relative="1" as="geometry" />
        </mxCell>
        <mxCell id="ypXTvWuPCxLjXO1J6HbK-14" style="edgeStyle=orthogonalEdgeStyle;rounded=0;orthogonalLoop=1;jettySize=auto;html=1;exitX=0.75;exitY=1;exitDx=0;exitDy=0;entryX=0.5;entryY=0;entryDx=0;entryDy=0;" edge="1" parent="1" source="zA23MoTUsTF4_91t8viU-3" target="ypXTvWuPCxLjXO1J6HbK-13">
          <mxGeometry relative="1" as="geometry" />
        </mxCell>
        <mxCell id="zA23MoTUsTF4_91t8viU-3" value="pymongo-api" style="rounded=1;whiteSpace=wrap;html=1;" parent="1" vertex="1">
          <mxGeometry x="320" y="120" width="120" height="60" as="geometry" />
        </mxCell>
        <mxCell id="ypXTvWuPCxLjXO1J6HbK-19" style="edgeStyle=orthogonalEdgeStyle;rounded=0;orthogonalLoop=1;jettySize=auto;html=1;exitX=1;exitY=0.5;exitDx=0;exitDy=0;entryX=0;entryY=0.5;entryDx=0;entryDy=0;" edge="1" parent="1" source="ypXTvWuPCxLjXO1J6HbK-1" target="ypXTvWuPCxLjXO1J6HbK-16">
          <mxGeometry relative="1" as="geometry" />
        </mxCell>
        <mxCell id="ypXTvWuPCxLjXO1J6HbK-1" value="Роутер" style="rounded=1;whiteSpace=wrap;html=1;arcSize=26;" vertex="1" parent="1">
          <mxGeometry x="130" y="240" width="140" height="50" as="geometry" />
        </mxCell>
        <mxCell id="ypXTvWuPCxLjXO1J6HbK-7" value="secondary" style="shape=cylinder3;whiteSpace=wrap;html=1;boundedLbl=1;backgroundOutline=1;size=15;" vertex="1" parent="1">
          <mxGeometry x="505" y="516" width="110" height="80" as="geometry" />
        </mxCell>
        <mxCell id="ypXTvWuPCxLjXO1J6HbK-8" value="secondary" style="shape=cylinder3;whiteSpace=wrap;html=1;boundedLbl=1;backgroundOutline=1;size=15;" vertex="1" parent="1">
          <mxGeometry x="505" y="466" width="110" height="80" as="geometry" />
        </mxCell>
        <mxCell id="ypXTvWuPCxLjXO1J6HbK-9" value="primary" style="shape=cylinder3;whiteSpace=wrap;html=1;boundedLbl=1;backgroundOutline=1;size=15;" vertex="1" parent="1">
          <mxGeometry x="505" y="416" width="110" height="80" as="geometry" />
        </mxCell>
        <mxCell id="ypXTvWuPCxLjXO1J6HbK-10" value="&lt;b&gt;shard1-2&lt;/b&gt;" style="shape=cylinder3;whiteSpace=wrap;html=1;boundedLbl=1;backgroundOutline=1;size=15;" vertex="1" parent="1">
          <mxGeometry x="505" y="366" width="110" height="80" as="geometry" />
        </mxCell>
        <mxCell id="ypXTvWuPCxLjXO1J6HbK-11" style="edgeStyle=orthogonalEdgeStyle;rounded=0;orthogonalLoop=1;jettySize=auto;html=1;exitX=0.5;exitY=1;exitDx=0;exitDy=0;entryX=0.5;entryY=0;entryDx=0;entryDy=0;entryPerimeter=0;" edge="1" parent="1" source="ypXTvWuPCxLjXO1J6HbK-13" target="ypXTvWuPCxLjXO1J6HbK-10">
          <mxGeometry relative="1" as="geometry" />
        </mxCell>
        <mxCell id="ypXTvWuPCxLjXO1J6HbK-20" style="edgeStyle=orthogonalEdgeStyle;rounded=0;orthogonalLoop=1;jettySize=auto;html=1;exitX=0;exitY=0.5;exitDx=0;exitDy=0;entryX=1;entryY=0.5;entryDx=0;entryDy=0;" edge="1" parent="1" source="ypXTvWuPCxLjXO1J6HbK-13" target="ypXTvWuPCxLjXO1J6HbK-16">
          <mxGeometry relative="1" as="geometry" />
        </mxCell>
        <mxCell id="ypXTvWuPCxLjXO1J6HbK-13" value="Роутер" style="rounded=1;whiteSpace=wrap;html=1;arcSize=26;" vertex="1" parent="1">
          <mxGeometry x="490" y="240" width="140" height="50" as="geometry" />
        </mxCell>
        <mxCell id="ypXTvWuPCxLjXO1J6HbK-16" value="configServer" style="rounded=1;whiteSpace=wrap;html=1;arcSize=26;" vertex="1" parent="1">
          <mxGeometry x="310" y="240" width="140" height="50" as="geometry" />
        </mxCell>
        <mxCell id="ypXTvWuPCxLjXO1J6HbK-18" style="edgeStyle=orthogonalEdgeStyle;rounded=0;orthogonalLoop=1;jettySize=auto;html=1;exitX=0.5;exitY=1;exitDx=0;exitDy=0;entryX=0.5;entryY=0;entryDx=0;entryDy=0;entryPerimeter=0;" edge="1" parent="1" source="ypXTvWuPCxLjXO1J6HbK-1" target="zA23MoTUsTF4_91t8viU-2">
          <mxGeometry relative="1" as="geometry" />
        </mxCell>
      </root>
    </mxGraphModel>
  </diagram>
</mxfile>
